<svg version="1" xmlns="http://www.w3.org/2000/svg" width="1200" height="1200" viewBox="0 0 900.000000 900.000000"><path d="M228 1c-10.8 1-27.9 4.4-42.1 8.5C102.4 33.5 35.8 99.1 10.7 182c-4.1 13.6-8.2 33.6-9.7 47.2-1.3 12.3-1.3 54.1 0 71.8 5.5 76.4 23.4 148.9 53.4 216.9C62 535 80.9 571.4 91 588c60.8 100.7 146.5 182.2 249.5 237.2 71.7 38.3 149.4 62.2 234.5 72 19.2 2.2 21.5 2.2 172.3 2.5l152.8.4-.4-152.8c-.4-167.5-.1-159.9-6.6-202.3-29.9-195-149.4-367.3-321.6-463.5C475.2 27.7 368.4-.4 262 .2c-14.6.1-29.9.4-34 .8z"/></svg>